PathFileType	4	(X/Y/Z)	C:/Users/beibeiliu/ov580/test_trc/User3\sequence.18_training_dense_right.trc
DataRate	CameraRate	NumFrames	NumMarkers	Units	OrigDataRate	OrigDataStartFrame	OrigNumFrames
120	120	12	19	mm	120	98	261
Frame#	Time	ThumbCMC			ThumbMCP			ThumbIP			ThumbTip			IndexMCP			IndexPIP			IndexTip			MiddleMCP			MiddlePIP			MiddleTip			RingMCP			RingPIP			RingTip			PinkyMCP			PinkyPIP			PinkyTip			BackHand1			BackHand2			BackHand3	
		X0	Y0	Z0	X1	Y1	Z1	X2	Y2	Z2	X3	Y3	Z3	X4	Y4	Z4	X5	Y5	Z5	X6	Y6	Z6	X7	Y7	Z7	X8	Y8	Z8	X9	Y9	Z9	X10	Y10	Z10	X11	Y11	Z11	X12	Y12	Z12	X13	Y13	Z13	X14	Y14	Z14	X15	Y15	Z15	X16	Y16	Z16	X17	Y17	Z17	X18	Y18	Z18	
97	0.808333	190.125	11.0371	17.9341	188.24	22.2809	-4.82448	191.476	43.7079	-25.5374	189.495	52.8676	-46.6994	173.757	-2.30444	-53.1949	143.388	6.82215	-44.6741	149.336	-0.43036	-13.1119	163.538	-18.2006	-56.9728	136.19	-8.30882	-44.5831	150.567	-14.2105	-6.90729	158.621	-38.7158	-52.5145	132.378	-31.4835	-44.8269	139.149	-25.8621	-11.6682	169.145	-58.876	-40.5064	160.294	-60.293	-64.7507	154.446	-59.7548	-86.2657	195.152	-52.6032	-6.27402	198.74	-52.586	23.3164	207.244	-20.107	8.42739	
98	0.816667	179.928	13.482	25.2113	175.377	28.065	2.83649	175.113	44.2736	-21.173	173.123	60.9735	-39.6552	174.338	2.73103	-51.0736	141.931	0.642381	-46.4261	147.452	-1.65804	-11.6287	170.412	-16.9902	-56.848	138.088	-15.8784	-45.0055	148.47	-16.4841	-9.76006	173.426	-36.5058	-51.9007	143.476	-35.4278	-49.3868	144.344	-31.6813	-16.6496	186.451	-57.3338	-42.0743	181.539	-48.9966	-66.9004	175.844	-50.0209	-87.5704	206.075	-39.5148	-3.3478	206.402	-45.6621	27.0747	206.556	-7.75946	10.3121	
99	0.825	171.185	12.4018	27.2422	164.046	25.0608	5.08982	160.918	46.1233	-18.1914	155.215	62.4509	-32.8536	171.062	10.5599	-47.3973	141.298	0.395569	-47.9363	146.786	-8.02508	-13.517	174.157	-8.3511	-55.3858	144.949	-19.7047	-49.4385	152.324	-20.8801	-10.4404	181.546	-28.725	-53.2507	153.536	-39.7108	-50.2494	153.674	-38.6106	-17.8369	202.28	-44.5219	-45.1925	198.165	-42.9046	-66.9366	196.02	-36.7575	-88.1752	212.514	-28.9662	-4.46418	214.107	-37.4704	27.2189	201.604	-0.300406	16.1149	
100	0.833333	163.069	5.26616	29.8092	152.907	22.5585	9.67082	144.45	40.4627	-10.3569	141.056	53.492	-30.2161	168.671	10.3986	-46.2947	139.843	-7.28622	-47.8229	145.027	-15.5798	-17.8615	176.897	-6.04227	-52.9091	150.535	-25.4853	-50.1799	157.142	-26.9413	-13.2649	189.74	-21.2438	-51.8174	162.07	-37.7841	-53.7183	161.647	-39.0112	-17.8915	210.027	-31.1183	-40.9613	207.591	-25.9593	-61.6029	208.355	-24.0591	-86.2759	213.372	-15.6894	0.45007	217.173	-27.9946	27.8724	197.741	5.32288	20.0198	
101	0.841667	156.204	1.94266	28.8346	147.017	14.7408	8.35841	133.747	36.6715	-9.78819	124.422	45.625	-22.8875	160.934	13.0191	-45.7161	140.846	-10.6116	-50.3238	148.599	-20.7528	-17.3291	176.36	-2.63471	-53.6217	155.124	-24.7443	-53.3704	163.015	-28.4222	-12.274	190.302	-12.204	-51.3026	170.693	-35.9431	-55.6204	166.565	-40.848	-22.3029	213.216	-20.1604	-37.8514	213.443	-14.42	-61.9426	216.513	-8.2157	-83.0594	213.659	-10.3319	5.20204	213.826	-20.5773	31.897	191.928	6.00025	22.1794	
102	0.85	154.843	-6.81178	29.2567	138.968	8.67448	12.0127	123.921	28.253	-8.10996	116.131	33.9814	-23.4182	161.171	11.6035	-43.4091	144.99	-15.3595	-53.4697	150.067	-25.9467	-20.6781	177.905	0.603683	-51.6154	160.489	-28.6892	-54.6498	169.686	-31.1477	-14.2462	194.907	-9.16359	-49.2371	177.133	-33.1231	-58.5146	172.069	-42.687	-26.0054	216.288	-10.5668	-39.6276	217.303	-6.67885	-59.7006	220.539	-0.550027	-80.234	211.455	-1.10612	3.01246	215.391	-16.3514	34.2041	187.44	5.62456	24.2251	
103	0.858333	149.967	-11.1462	31.7071	135.77	1.78904	12.2658	120.963	17.4798	-7.51474	108.796	29.3452	-26.4694	161.086	8.02612	-46.1759	144.798	-19.5732	-53.0496	148.849	-27.2123	-20.6354	179.425	-0.40426	-51.343	161.678	-28.5117	-55.399	166.278	-32.649	-17.4649	193.44	-6.14608	-51.0383	182.827	-31.6821	-59.9057	178.075	-43.6814	-28.481	219.138	-6.47819	-39.2059	218.168	-0.891933	-56.3527	221.387	6.8979	-77.0452	211.663	0.0662455	5.26493	212.743	-12.6957	34.8466	179.868	6.21401	26.5732	
104	0.866667	152.666	-18.2629	29.5698	130.882	-2.09114	11.6088	118.439	10.7712	-10.1268	107.713	17.4898	-27.2328	156.884	8.53844	-44.1071	145.23	-21.9422	-56.0706	153.011	-31.781	-25.5326	174.444	0.182324	-53.1669	166.692	-30.7648	-58.407	171.007	-36.6033	-19.9427	196.206	-6.45997	-50.7132	182.7	-33.5641	-60.1176	183.079	-44.6358	-27.7203	219.215	-5.6501	-34.9126	220.497	0.716519	-56.2828	220.298	11.2355	-79.6098	209.487	-0.171545	9.67109	212.65	-14.6712	35.9929	181.31	0.43745	25.7984	
105	0.875	150.841	-19.713	27.6726	130.439	-8.24925	8.51428	114.517	5.28518	-14.0048	106.376	11.9878	-33.4099	157.753	3.44787	-47.8772	148.132	-24.4608	-58.5534	152.039	-35.236	-28.5521	177.067	-4.31151	-53.4038	168.914	-33.0386	-60.7376	171.371	-39.2427	-20.2448	193.822	-9.29212	-52.58	184.119	-37.242	-59.4517	181.478	-48.1821	-30.228	218.828	-6.5402	-35.3966	218.446	1.02598	-58.7502	221.184	7.34012	-77.9763	207.626	-0.715341	6.22957	209.23	-12.8209	35.4078	176.143	0.297468	22.7175	
106	0.883333	145.874	-22.9715	26.481	129.554	-14.0064	5.52065	115.62	-1.81525	-19.3142	107.783	1.11204	-37.2408	161.956	-3.26465	-50.3099	154.529	-29.999	-62.0976	155.979	-39.3821	-27.9984	180.587	-10.9453	-55.9194	172.528	-41.8216	-59.5564	174.439	-42.1289	-17.6766	195.747	-13.1413	-52.6668	189.146	-40.8646	-60.2711	182.866	-51.1981	-30.3049	221.016	-10.7957	-34.642	223.1	-4.05184	-60.1645	226.506	1.10587	-77.7011	210.379	-1.29184	5.5529	211.703	-14.0125	35.4649	175.636	-0.544768	20.2437	
107	0.891667	145.525	-26.9501	23.0687	133.874	-19.6836	-2.27801	117.929	-8.63152	-26.5642	106.368	-4.9079	-44.5743	161.084	-8.8067	-53.5602	152.3	-40.3872	-62.0619	156.521	-42.2419	-26.8216	179.901	-17.5084	-59.5051	173.01	-48.1788	-59.9891	177.205	-49.7505	-22.203	197.633	-20.0206	-52.6995	194.868	-51.5092	-57.1938	185.451	-55.3241	-27.8278	221.986	-13.9817	-38.4885	223.924	-10.4204	-56.56	225.452	-4.25133	-80.0146	208.675	-4.90283	3.70727	206.543	-12.0992	31.5299	173.825	-3.7343	18.9558	
108	0.9	148.155	-29.5216	20.7001	131.316	-21.3548	-5.98001	114.537	-14.2735	-28.3922	108.671	-11.0088	-49.4942	164.223	-16.3993	-54.8284	156.856	-50.2208	-60.7174	156.325	-47.7418	-26.7549	181.877	-22.3493	-55.9883	179.029	-56.7135	-59.6619	174.563	-53.5653	-20.16	200.167	-29.8011	-55.106	197.024	-59.6943	-54.9785	188.468	-60.5022	-21.0095	223.042	-19.8283	-41.0633	225.166	-19.1045	-57.5523	232.406	-15.2508	-80.9921	208.787	-9.3455	3.07919	203.865	-12.8815	30.9807	173.709	-4.20492	16.2927	
